<svg width="50" height="50" viewBox="0 0 50 50" xmlns="http://www.w3.org/2000/svg">
<g clip-path="url(#clip0_1249_380)">
<path d="M49.1667 20C49.6269 20 50 19.6269 50 19.1667C50 18.7064 49.6269 18.3333 49.1667 18.3333H46.6667V2.5C46.6667 1.11929 45.5474 0 44.1667 0H34.1667C32.786 0 31.6667 1.11929 31.6667 2.5V18.3333H29.1667C28.7064 18.3333 28.3333 18.7064 28.3333 19.1667C28.3333 19.6269 28.7064 20 29.1667 20H30V23.3333H29.1667C28.7064 23.3333 28.3333 23.7064 28.3333 24.1667C28.3333 24.6269 28.7064 25 29.1667 25H30V28.3333H29.1667C28.7064 28.3333 28.3333 28.7064 28.3333 29.1667C28.3333 29.6269 28.7064 30 29.1667 30H30V33.3333H29.1667C28.7064 33.3333 28.3333 33.7064 28.3333 34.1667C28.3333 34.6269 28.7064 35 29.1667 35H30V38.3333H29.1667C28.7064 38.3333 28.3333 38.7064 28.3333 39.1667C28.3333 39.6269 28.7064 40 29.1667 40H30V43.3333H29.1667C28.7064 43.3333 28.3333 43.7064 28.3333 44.1667C28.3333 44.6269 28.7064 45 29.1667 45H30V48.3333H25V20C25 19.0795 24.2538 18.3333 23.3333 18.3333H1.66667C0.746192 18.3333 0 19.0795 0 20V48.3333C0 49.2538 0.746192 50 1.66667 50H49.1667C49.6269 50 50 49.6269 50 49.1667C50 48.7064 49.6269 48.3333 49.1667 48.3333H48.3333V45H49.1667C49.6269 45 50 44.6269 50 44.1667C50 43.7064 49.6269 43.3333 49.1667 43.3333H48.3333V40H49.1667C49.6269 40 50 39.6269 50 39.1667C50 38.7064 49.6269 38.3333 49.1667 38.3333H48.3333V35H49.1667C49.6269 35 50 34.6269 50 34.1667C50 33.7064 49.6269 33.3333 49.1667 33.3333H48.3333V30H49.1667C49.6269 30 50 29.6269 50 29.1667C50 28.7064 49.6269 28.3333 49.1667 28.3333H48.3333V25H49.1667C49.6269 25 50 24.6269 50 24.1667C50 23.7064 49.6269 23.3333 49.1667 23.3333H48.3333V20H49.1667ZM13.3333 33.3333H20V35H13.3333V33.3333ZM12.5 36.6667H19.1667V38.3333H12.5V36.6667ZM20.8117 36.4467C21.3379 36.1551 21.665 35.6016 21.6667 35V33.3333C21.6667 32.4129 20.9205 31.6667 20 31.6667H13.3333C12.4129 31.6667 11.6667 32.4129 11.6667 33.3333V35C11.6691 35.0738 11.6766 35.1473 11.6892 35.22C11.1627 35.5113 10.8352 36.0649 10.8333 36.6667V38.3333H1.66667V30H23.3333V38.3333H20.8333V36.6667C20.8309 36.5929 20.8234 36.5194 20.8108 36.4467H20.8117ZM6.66667 28.3333H5V23.3333H6.66667V28.3333ZM15 25.8333C15 24.4526 16.1193 23.3333 17.5 23.3333C18.8807 23.3333 20 24.4526 20 25.8333C20 27.214 18.8807 28.3333 17.5 28.3333C16.1193 28.3333 15 27.214 15 25.8333ZM23.3333 20V28.3333H20.8117C21.3632 27.6163 21.6636 26.7379 21.6667 25.8333C21.6667 23.5321 19.8012 21.6667 17.5 21.6667C15.1988 21.6667 13.3333 23.5321 13.3333 25.8333C13.3364 26.7379 13.6368 27.6163 14.1883 28.3333H8.33333V23.3333C8.33333 22.4129 7.58714 21.6667 6.66667 21.6667H5C4.07953 21.6667 3.33333 22.4129 3.33333 23.3333V28.3333H1.66667V20H23.3333ZM1.66667 40H23.3333V48.3333H10.8117C11.3632 47.6163 11.6636 46.7379 11.6667 45.8333C11.6667 43.5321 9.80119 41.6667 7.5 41.6667C5.19881 41.6667 3.33333 43.5321 3.33333 45.8333C3.3364 46.7379 3.63683 47.6163 4.18833 48.3333H1.66667V40ZM5 45.8333C5 44.4526 6.11929 43.3333 7.5 43.3333C8.88071 43.3333 10 44.4526 10 45.8333C10 47.214 8.88071 48.3333 7.5 48.3333C6.83696 48.3333 6.20107 48.0699 5.73223 47.6011C5.26339 47.1323 5 46.4964 5 45.8333ZM33.3333 2.5C33.3333 2.03976 33.7064 1.66667 34.1667 1.66667H44.1667C44.6269 1.66667 45 2.03976 45 2.5V18.3333H33.3333V2.5ZM46.6667 28.3333H31.6667V25H46.6667V28.3333ZM46.6667 33.3333H31.6667V30H46.6667V33.3333ZM46.6667 38.3333H31.6667V35H46.6667V38.3333ZM46.6667 43.3333H31.6667V40H46.6667V43.3333ZM31.6667 48.3333V45H46.6667V48.3333H31.6667ZM46.6667 23.3333H31.6667V20H46.6667V23.3333Z" fill="white"/>
<path d="M43.3333 10C42.8731 10 42.5 10.3731 42.5 10.8333V11.6667C42.5 12.1269 42.8731 12.5 43.3333 12.5C43.7936 12.5 44.1667 12.1269 44.1667 11.6667V10.8333C44.1667 10.3731 43.7936 10 43.3333 10Z" fill="white"/>
<path d="M1.66667 8.33333H20C20.9205 8.33333 21.6667 7.58714 21.6667 6.66667V1.66667C21.6667 0.746192 20.9205 0 20 0H1.66667C0.746192 0 0 0.746192 0 1.66667V6.66667C0 7.58714 0.746192 8.33333 1.66667 8.33333ZM20 6.66667H11.6667V1.66667H20V6.66667ZM1.66667 1.66667H10V6.66667H1.66667V1.66667Z" fill="white"/>
</g>
<defs>
<clipPath id="clip0_1249_380">
<rect width="50" height="50" fill="white"/>
</clipPath>
</defs>
</svg>
