<svg width="50" height="50" viewBox="0 0 50 50" xmlns="http://www.w3.org/2000/svg">
<g clip-path="url(#clip0_1249_352)">
<path d="M45.3127 28.9062H18.7502C18.319 28.9062 17.969 29.2555 17.969 29.6875C17.969 30.1195 18.319 30.4688 18.7502 30.4688H46.094H47.5846C47.8049 30.4688 48.008 30.557 48.1572 30.7172C48.3065 30.8773 48.3799 31.0875 48.3643 31.307C48.1455 34.3289 47.1932 41.8383 43.0822 46.2977C41.8283 47.6578 39.9854 48.4375 38.0268 48.4375H11.9736C10.015 48.4375 8.17208 47.6578 6.91817 46.2977C2.80724 41.8391 1.85489 34.3297 1.63614 31.307C1.61974 31.0875 1.69395 30.8773 1.84317 30.7172C1.99239 30.557 2.19552 30.4688 2.41583 30.4688H7.03146V39.0625C7.03146 39.9242 7.73224 40.625 8.59396 40.625H15.6252C16.4869 40.625 17.1877 39.9242 17.1877 39.0625V28.9062C17.1877 28.0445 16.4869 27.3438 15.6252 27.3438H8.59396C7.73224 27.3438 7.03146 28.0445 7.03146 28.9062H2.41583C1.76661 28.9062 1.14083 29.1789 0.699424 29.6531C0.258017 30.1273 0.0314548 30.7719 0.0783298 31.4203C0.308799 34.6055 1.32442 42.5359 5.76974 47.3563C7.31817 49.0367 9.57989 50 11.9736 50H38.0268C40.4205 50 42.6822 49.0367 44.2315 47.3563C48.6768 42.5352 49.6924 34.6055 49.9229 31.4203C49.9697 30.7719 49.7432 30.1281 49.3018 29.6531C49.2768 29.6266 49.2455 29.607 49.2197 29.5812V21.0938C49.2197 19.8016 48.1682 18.75 46.876 18.75H39.0627C38.6315 18.75 38.2815 19.0992 38.2815 19.5312V21.875C38.2815 22.307 38.6315 22.6562 39.0627 22.6562V24.2188C39.0627 24.6508 39.4127 25 39.844 25H42.969C43.4002 25 43.7502 24.6508 43.7502 24.2188V22.6562H45.3127V28.9062ZM8.59396 28.9062H15.6252L15.626 39.0625H8.59396V28.9062ZM42.1877 23.4375H40.6252V22.6562H42.1877V23.4375ZM42.969 21.0938H39.844V20.3125H46.8752C47.3057 20.3125 47.6565 20.6625 47.6565 21.0938V28.9062H47.5846H46.8752V22.6562C46.8752 21.7945 46.1744 21.0938 45.3127 21.0938H42.969Z" fill="#EAA450"/>
<path d="M49.2188 1.5625H46.0938C46.0938 0.700781 45.393 0 44.5312 0H32.8125C31.9508 0 31.25 0.700781 31.25 1.5625H28.125C27.6938 1.5625 27.3438 1.91172 27.3438 2.34375V5.46875C27.3438 5.90078 27.6938 6.25 28.125 6.25H29.6875C30.1188 6.25 30.4688 5.90078 30.4688 5.46875C30.4688 5.03672 30.1188 4.6875 29.6875 4.6875H28.9062V3.125H31.25V15.625C31.25 16.4867 31.9508 17.1875 32.8125 17.1875H44.5312C45.393 17.1875 46.0938 16.4867 46.0938 15.625V6.25H49.2188C49.65 6.25 50 5.90078 50 5.46875V2.34375C50 1.91172 49.65 1.5625 49.2188 1.5625ZM32.8125 15.625V1.5625H44.5312V2.34375V5.46719V5.46875C44.5312 5.46875 44.5312 5.46953 44.5312 5.47031L44.532 15.625H32.8125ZM48.4375 4.6875H46.0938V3.125H48.4375V4.6875Z" fill="#EAA450"/>
<path d="M0.78125 22.6562H27.3438C27.775 22.6562 28.125 22.307 28.125 21.875V18.75C28.125 18.318 27.775 17.9688 27.3438 17.9688H24.3492L24.9688 15.8438C25.0375 15.607 24.9914 15.3523 24.8438 15.1562C24.6961 14.9594 24.4648 14.8438 24.2188 14.8438H24.1789C24.2047 14.7172 24.2188 14.5867 24.2188 14.4531V13.6719C24.2188 12.5945 23.3422 11.7188 22.2656 11.7188H20.7031C19.6266 11.7188 18.75 12.5945 18.75 13.6719V14.4531C18.75 14.5867 18.7641 14.7172 18.7898 14.8438H18.75C18.5039 14.8438 18.2727 14.9594 18.125 15.1562C17.9773 15.3523 17.9305 15.607 18 15.8438L18.6195 17.9688H17.1875V14.0625C17.1875 13.2008 16.4867 12.5 15.625 12.5H11.7188C10.857 12.5 10.1562 13.2008 10.1562 14.0625V17.9688H9.2625C9.2625 17.9039 9.26719 17.8398 9.25859 17.775L8.67266 13.0875C8.57578 12.307 7.90937 11.7188 7.12266 11.7188H7.03125V9.375C7.03125 8.94297 6.68125 8.59375 6.25 8.59375H4.6875C4.25625 8.59375 3.90625 8.94297 3.90625 9.375C3.90625 9.80703 4.25625 10.1562 4.6875 10.1562H5.46875V11.7188H5.37734C4.59141 11.7188 3.92422 12.307 3.82734 13.0875L3.24141 17.775C3.23281 17.8398 3.2375 17.9039 3.2375 17.9688H0.78125C0.35 17.9688 0 18.318 0 18.75V21.875C0 22.307 0.35 22.6562 0.78125 22.6562ZM20.3125 14.4531V13.6719C20.3125 13.4602 20.4914 13.2812 20.7031 13.2812H22.2656C22.4773 13.2812 22.6562 13.4602 22.6562 13.6719V14.4531C22.6562 14.6648 22.4773 14.8438 22.2656 14.8438H20.7031C20.4914 14.8438 20.3125 14.6648 20.3125 14.4531ZM19.7914 16.4062H20.7031H22.2656H23.1773L22.7219 17.9688H20.2477L19.7914 16.4062ZM15.625 14.0625V14.8438H11.7188V14.0625H15.625ZM11.7188 16.4062H15.6258L15.6266 17.9688H11.7188V16.4062ZM5.37734 13.2812H7.12266L7.70859 17.9688H4.79141L5.37734 13.2812ZM1.5625 19.5312H4.79141H7.70859H11.7188H15.625H19.6617H23.3078H26.5625V21.0938H1.5625V19.5312Z" fill="#EAA450"/>
</g>
<defs>
<clipPath id="clip0_1249_352">
<rect width="50" height="50" fill="white"/>
</clipPath>
</defs>
</svg>
