<svg width="50" height="50" viewBox="0 0 50 50" xmlns="http://www.w3.org/2000/svg">
<g clip-path="url(#clip0_1249_376)">
<path d="M49.2188 2.34375V0.78125H25C24.568 0.78125 24.2188 1.13047 24.2188 1.5625V7.8125C24.2188 8.24453 24.568 8.59375 25 8.59375H25.7812V47.6562H0.78125V49.2188H26.5625H29.6875H35.9375H39.0625H49.2188V47.6562H39.8438V43.75H49.2188V42.1875H39.0625H35.9375H33.5938V40.625H49.2188V39.0625H32.8125C32.3805 39.0625 32.0312 39.4117 32.0312 39.8438V42.9688C32.0312 43.4008 32.3805 43.75 32.8125 43.75H35.1562V47.6562H30.4688V8.59375H49.2188V7.03125H29.6875H26.5625H25.7812V2.34375H49.2188ZM36.7188 43.75H38.2812V47.6562H36.7188V43.75ZM28.9062 8.59375V47.6562H27.3438V8.59375H28.9062Z" fill="white"/>
<path d="M16.4064 24.9999C16.4064 23.3452 16.015 21.689 15.2759 20.2101L14.7619 19.1819C14.4962 18.6522 13.6298 18.6522 13.3642 19.1819L12.8501 20.2101C12.1103 21.689 11.7189 23.3452 11.7189 24.9999C11.7189 25.1882 11.7415 25.3757 11.7517 25.564C11.247 25.1866 10.6712 24.9101 10.0548 24.7562L8.00169 24.2429C7.73763 24.1749 7.45404 24.2546 7.26029 24.4483C7.06654 24.6421 6.98763 24.9233 7.05482 25.1897L7.5681 27.2437C7.77826 28.0819 8.21107 28.8491 8.82201 29.4593C9.43216 30.0702 10.1994 30.5038 11.0376 30.7132H11.0384L11.5634 30.8444L10.5868 31.3327L11.2861 32.7304L13.2814 31.7327V33.5937H7.81263C7.3806 33.5937 7.03138 33.9429 7.03138 34.3749V37.4999C7.03138 37.9319 7.3806 38.2812 7.81263 38.2812H8.6681L9.37904 45.3905C9.41888 45.789 9.75482 46.0937 10.1564 46.0937H17.9689C18.3704 46.0937 18.7064 45.789 18.7462 45.3905L19.4572 38.2812H20.3126C20.7447 38.2812 21.0939 37.9319 21.0939 37.4999V34.3749C21.0939 33.9429 20.7447 33.5937 20.3126 33.5937H14.8439V31.7327L16.8384 32.7296L17.5376 31.3319L16.5611 30.8437L17.0861 30.7124H17.0869C17.9251 30.5022 18.6923 30.0694 19.3025 29.4585C19.9134 28.8483 20.347 28.0812 20.5564 27.2421L21.0697 25.189C21.1368 24.9226 21.0579 24.6413 20.8642 24.4476C20.6704 24.2538 20.3884 24.1741 20.1228 24.2421L18.0689 24.7554C17.4533 24.9093 16.8775 25.1858 16.3728 25.5632C16.3837 25.3757 16.4064 25.1882 16.4064 24.9999ZM17.2619 44.5312H10.8642L10.2392 38.2812H17.8876L17.2619 44.5312ZM19.5314 36.7187H8.59388V35.1562H19.5314V36.7187ZM14.0626 21.3015C14.5744 22.4616 14.8439 23.7312 14.8439 24.9999C14.8439 26.2687 14.5744 27.5382 14.0626 28.6983C13.5509 27.5382 13.2814 26.2687 13.2814 24.9999C13.2814 23.7312 13.5509 22.4616 14.0626 21.3015ZM9.92748 28.3538C9.51732 27.9437 9.22591 27.4272 9.08373 26.864L8.88685 26.0741L9.67591 26.271C10.2408 26.4132 10.7564 26.7046 11.1665 27.1147C11.5767 27.5249 11.8681 28.0413 12.0103 28.6046L12.2072 29.3944L11.4181 29.1976C10.854 29.0554 10.3376 28.764 9.92748 28.3538ZM18.4486 26.271L19.2384 26.0741L19.0415 26.8632C18.8994 27.428 18.6079 27.9437 18.1978 28.3538C17.7876 28.764 17.2712 29.0554 16.7072 29.1976L15.9181 29.3944L16.115 28.6054C16.2572 28.0405 16.5486 27.5249 16.9587 27.1147C17.3689 26.7046 17.8853 26.4132 18.4486 26.271Z" fill="white"/>
<path d="M3.90625 11.7188H14.0625C16.2164 11.7188 17.9688 9.96641 17.9688 7.8125C17.9688 5.65859 16.2164 3.90625 14.0625 3.90625C13.7203 3.90625 13.3773 3.95391 13.0445 4.04687C12.4461 2.12891 10.6828 0.78125 8.59375 0.78125C6.00859 0.78125 3.90625 2.88359 3.90625 5.46875C2.18281 5.46875 0.78125 6.87031 0.78125 8.59375C0.78125 10.3172 2.18281 11.7188 3.90625 11.7188ZM3.90625 7.03125C4.11719 7.03125 4.32266 7.07344 4.51797 7.15625C4.79297 7.27109 5.10859 7.22266 5.33281 7.02891C5.55781 6.83516 5.65391 6.52969 5.58047 6.24219C5.50391 5.94766 5.46875 5.70156 5.46875 5.46875C5.46875 3.74531 6.87031 2.34375 8.59375 2.34375C10.2195 2.34375 11.55 3.57344 11.6883 5.20469C11.7102 5.47422 11.8703 5.71094 12.1102 5.83437C12.3508 5.95781 12.6375 5.94766 12.868 5.80937C13.2453 5.58281 13.6469 5.46875 14.0625 5.46875C15.3547 5.46875 16.4062 6.52031 16.4062 7.8125C16.4062 9.10469 15.3547 10.1562 14.0625 10.1562H3.90625C3.04453 10.1562 2.34375 9.45547 2.34375 8.59375C2.34375 7.73203 3.04453 7.03125 3.90625 7.03125Z" fill="white"/>
</g>
<defs>
<clipPath id="clip0_1249_376">
<rect width="50" height="50" fill="white"/>
</clipPath>
</defs>
</svg>
