<svg width="20" height="20" viewBox="0 0 20 20" fill="none" xmlns="http://www.w3.org/2000/svg">
<path d="M15.8333 5.83325C15.6123 5.83325 15.4003 5.92105 15.2441 6.07733C15.0878 6.23361 15 6.44557 15 6.66659V15.9924C14.9761 16.4138 14.7866 16.8087 14.4729 17.0911C14.1592 17.3734 13.7466 17.5204 13.325 17.4999H6.67498C6.25339 17.5204 5.8408 17.3734 5.52707 17.0911C5.21334 16.8087 5.02389 16.4138 4.99998 15.9924V6.66659C4.99998 6.44557 4.91218 6.23361 4.7559 6.07733C4.59962 5.92105 4.38766 5.83325 4.16665 5.83325C3.94563 5.83325 3.73367 5.92105 3.57739 6.07733C3.42111 6.23361 3.33331 6.44557 3.33331 6.66659V15.9924C3.3571 16.8559 3.72213 17.6748 4.34846 18.2698C4.97479 18.8647 5.81137 19.1872 6.67498 19.1666H13.325C14.1886 19.1872 15.0252 18.8647 15.6515 18.2698C16.2778 17.6748 16.6429 16.8559 16.6666 15.9924V6.66659C16.6666 6.44557 16.5788 6.23361 16.4226 6.07733C16.2663 5.92105 16.0543 5.83325 15.8333 5.83325Z" fill="#33332E"/>
<path d="M16.6667 3.33325H13.3333V1.66659C13.3333 1.44557 13.2455 1.23361 13.0893 1.07733C12.933 0.921049 12.721 0.833252 12.5 0.833252H7.5C7.27899 0.833252 7.06702 0.921049 6.91074 1.07733C6.75446 1.23361 6.66667 1.44557 6.66667 1.66659V3.33325H3.33333C3.11232 3.33325 2.90036 3.42105 2.74408 3.57733C2.5878 3.73361 2.5 3.94557 2.5 4.16659C2.5 4.3876 2.5878 4.59956 2.74408 4.75584C2.90036 4.91212 3.11232 4.99992 3.33333 4.99992H16.6667C16.8877 4.99992 17.0996 4.91212 17.2559 4.75584C17.4122 4.59956 17.5 4.3876 17.5 4.16659C17.5 3.94557 17.4122 3.73361 17.2559 3.57733C17.0996 3.42105 16.8877 3.33325 16.6667 3.33325ZM8.33333 3.33325V2.49992H11.6667V3.33325H8.33333Z" fill="#33332E"/>
<path d="M9.16667 14.1667V8.33333C9.16667 8.11232 9.07887 7.90036 8.92259 7.74408C8.76631 7.5878 8.55435 7.5 8.33333 7.5C8.11232 7.5 7.90036 7.5878 7.74408 7.74408C7.5878 7.90036 7.5 8.11232 7.5 8.33333V14.1667C7.5 14.3877 7.5878 14.5996 7.74408 14.7559C7.90036 14.9122 8.11232 15 8.33333 15C8.55435 15 8.76631 14.9122 8.92259 14.7559C9.07887 14.5996 9.16667 14.3877 9.16667 14.1667Z" fill="#33332E"/>
<path d="M12.5 14.1667V8.33333C12.5 8.11232 12.4122 7.90036 12.2559 7.74408C12.0996 7.5878 11.8877 7.5 11.6666 7.5C11.4456 7.5 11.2337 7.5878 11.0774 7.74408C10.9211 7.90036 10.8333 8.11232 10.8333 8.33333V14.1667C10.8333 14.3877 10.9211 14.5996 11.0774 14.7559C11.2337 14.9122 11.4456 15 11.6666 15C11.8877 15 12.0996 14.9122 12.2559 14.7559C12.4122 14.5996 12.5 14.3877 12.5 14.1667Z" fill="#33332E"/>
</svg>
