<svg width="50" height="50" viewBox="0 0 50 50" xmlns="http://www.w3.org/2000/svg">
<g clip-path="url(#clip0_1249_357)">
<path d="M25.7895 0H24.2105H17.7192H16.1403H9.64912H8.07022H0V24.2105V25.7895V32.2808V33.8597V40.351V41.9299V50H24.2105H25.7895H32.2808H33.8597H40.351H41.9299H50V25.7895V24.2105V17.7192V16.1403V9.64912V8.07022V0H25.7895ZM9.64912 1.57891H16.1404V24.2104H9.64912V1.57891ZM1.57891 1.57891H8.07022V24.2104H1.57891V1.57891ZM24.2105 48.4211H1.57891V41.9298H24.2104V48.4211H24.2105ZM24.2105 40.3509H1.57891V33.8596H24.2104V40.3509H24.2105ZM24.2105 32.2808H1.57891V25.7895H8.07022H9.64912H16.1404H17.7193H24.2104V32.2808H24.2105ZM24.2105 8.07022V9.64912V16.1404V17.7193V24.2104H17.7192V1.57891H24.2105V8.07022ZM32.2808 48.4211H25.7895V41.9298V40.3509V33.8596V32.2807V25.7896H32.2808V48.4211ZM40.3509 48.4211H33.8596V25.7895H40.3509V48.4211ZM48.4211 48.4211H41.9298V25.7895H48.4211V48.4211ZM48.4211 24.2105H41.9298H40.3509H33.8596H32.2807H25.7896V17.7192H48.4211V24.2105ZM48.4211 16.1403H25.7895V9.64912H48.421V16.1403H48.4211ZM48.4211 8.07022H25.7895V1.57891H48.421V8.07022H48.4211Z" fill="white"/>
</g>
<defs>
<clipPath id="clip0_1249_357">
<rect width="50" height="50" fill="white"/>
</clipPath>
</defs>
</svg>
