<svg width="50" height="50" viewBox="0 0 50 50" xmlns="http://www.w3.org/2000/svg">
<g clip-path="url(#clip0_1249_342)">
<path d="M49.2676 23.1869H48.2258V19.5316C48.2258 18.7306 47.9511 17.944 47.4525 17.3172L46.9315 16.6618V14.8831C46.9315 14.2098 46.384 13.6624 45.7108 13.6624H44.9162C44.2429 13.6624 43.6954 14.2098 43.6954 14.8831V16.6618L43.174 17.3172C42.6754 17.944 42.4011 18.7306 42.4011 19.5316V23.1869H41.552V21.3871C41.552 20.586 41.2773 19.7998 40.7787 19.1727L40.2576 18.5173V16.7385C40.2576 16.0652 39.7102 15.5178 39.0369 15.5178H38.2423C37.569 15.5178 37.0216 16.0652 37.0216 16.7385V18.5173L36.5002 19.1727C36.0016 19.7998 35.7269 20.5864 35.7269 21.3871V23.1869H33.1543V22.9008C33.1543 22.0158 32.4345 21.2959 31.5495 21.2959H30.3162C29.9114 21.2959 29.5837 21.624 29.5837 22.0284C29.5837 22.4327 29.9114 22.7608 30.3162 22.7608H31.5495C31.6265 22.7608 31.6895 22.8237 31.6895 22.9008V23.1869H25.7324V22.0284C25.7324 21.624 25.4047 21.2959 25 21.2959C24.5953 21.2959 24.2676 21.624 24.2676 22.0284V23.1869H18.3102V22.9008C18.3102 22.8237 18.3731 22.7608 18.4505 22.7608H19.6838C20.0886 22.7608 20.4163 22.4327 20.4163 22.0284C20.4163 21.624 20.0886 21.2959 19.6838 21.2959H18.4505C17.5655 21.2959 16.8453 22.0158 16.8453 22.9008V23.1869H5.51758V18.2198C5.51758 17.4568 6.13823 16.8362 6.90117 16.8362C7.66411 16.8362 8.28438 17.4568 8.28438 18.2198V20.6967C8.28438 21.101 8.61244 21.4291 9.0168 21.4291C9.42154 21.4291 9.74922 21.101 9.74922 20.6967V18.2198C9.74922 16.6493 8.47168 15.3713 6.90117 15.3713C5.33066 15.3713 4.05273 16.6493 4.05273 18.2198V20.7752H3.15742C2.75307 20.7752 2.425 21.1029 2.425 21.5077C2.425 21.912 2.75307 22.2401 3.15742 22.2401H4.05273V23.1869H0.732422C0.327683 23.1869 0 23.5146 0 23.9193V35.9539C0 36.3583 0.327683 36.6863 0.732422 36.6863C1.13716 36.6863 1.46484 36.3583 1.46484 35.9539V34.0466H14.0137V47.4606H1.70898C1.57433 47.4606 1.46484 47.3511 1.46484 47.2164V38.8836C1.46484 38.4789 1.13716 38.1512 0.732422 38.1512C0.327683 38.1512 0 38.4789 0 38.8836V47.2164C0 48.1587 0.766754 48.9254 1.70898 48.9254H48.291C49.2332 48.9254 50 48.1587 50 47.2164V38.8836C50 38.4789 49.6723 38.1512 49.2676 38.1512C48.8628 38.1512 48.5352 38.4789 48.5352 38.8836V47.2164C48.5352 47.3511 48.4257 47.4606 48.291 47.4606H35.9863V34.0466H48.5352V35.9539C48.5352 36.3583 48.8628 36.6863 49.2676 36.6863C49.6723 36.6863 50 36.3583 50 35.9539V23.9193C50 23.5146 49.6723 23.1869 49.2676 23.1869ZM43.866 19.5316C43.866 19.0605 44.0273 18.5978 44.3207 18.2289L45.0012 17.3733C45.1042 17.244 45.1603 17.083 45.1603 16.9174V15.1272H45.4666V16.9174C45.4666 17.0834 45.5227 17.244 45.6261 17.3733L46.3062 18.2289C46.5996 18.5978 46.7613 19.0605 46.7613 19.5316V23.1869H43.866V19.5316ZM37.1922 21.3871C37.1922 20.916 37.3535 20.4533 37.6469 20.0844L38.3274 19.2288C38.4304 19.0994 38.4865 18.9385 38.4865 18.7729V16.9827H38.7928V18.7729C38.7928 18.9385 38.8489 19.0994 38.9519 19.2288L39.6324 20.0844C39.9258 20.4533 40.0871 20.916 40.0871 21.3871V23.1869H37.1922V21.3871ZM1.46484 24.6517H48.5352V25.9121H1.46484V24.6517ZM34.5215 27.377V32.5817H15.4785V27.377H34.5215ZM1.46484 32.5817V27.377H14.0137V32.5817H1.46484ZM34.5215 47.4606H15.4785V34.0466H34.5215V47.4606ZM35.9863 32.5817V27.377H48.5352V32.5817H35.9863Z" fill="white"/>
<path d="M20.5179 31.8065C21.5788 31.8065 22.442 30.9436 22.442 29.8824C22.442 28.8215 21.5788 27.9586 20.5179 27.9586C19.457 27.9586 18.5938 28.8215 18.5938 29.8824C18.5938 30.9436 19.457 31.8065 20.5179 31.8065ZM20.5179 29.4235C20.7712 29.4235 20.9772 29.6295 20.9772 29.8824C20.9772 30.1357 20.7712 30.3417 20.5179 30.3417C20.2646 30.3417 20.0586 30.1357 20.0586 29.8824C20.0586 29.6295 20.2646 29.4235 20.5179 29.4235Z" fill="white"/>
<path d="M29.4827 31.8065C30.5436 31.8065 31.4069 30.9436 31.4069 29.8824C31.4069 28.8215 30.5436 27.9586 29.4827 27.9586C28.4219 27.9586 27.5586 28.8215 27.5586 29.8824C27.5586 30.9436 28.4219 31.8065 29.4827 31.8065ZM29.4827 29.4235C29.736 29.4235 29.942 29.6295 29.942 29.8824C29.942 30.1357 29.736 30.3417 29.4827 30.3417C29.2294 30.3417 29.0234 30.1357 29.0234 29.8824C29.0234 29.6295 29.2294 29.4235 29.4827 29.4235Z" fill="white"/>
<path d="M15.2344 11.9141H34.7656C35.4389 11.9141 35.9863 11.3667 35.9863 10.6934V8.41446C35.9863 8.40912 35.9863 8.40378 35.9859 8.39806C35.9859 8.39653 35.9859 8.395 35.9859 8.3931C35.9859 8.3889 35.9856 8.3847 35.9856 8.38051C35.9856 8.37784 35.9852 8.37517 35.9852 8.3725C35.9848 8.36906 35.9848 8.36563 35.9844 8.3622C35.9844 8.35953 35.984 8.35648 35.9837 8.35342C35.9837 8.3519 35.9837 8.35037 35.9833 8.34846C35.9707 8.20618 35.9173 8.07533 35.8345 7.96814C35.8341 7.96776 35.8341 7.96738 35.8337 7.967C35.8315 7.96432 35.8292 7.96127 35.8269 7.9586C35.8261 7.95746 35.8253 7.95631 35.8246 7.95555C35.8212 7.95135 35.8177 7.94716 35.8143 7.94296C35.8128 7.94106 35.8116 7.93953 35.8101 7.938C35.8086 7.9361 35.8067 7.93419 35.8051 7.93228C35.8028 7.92961 35.8009 7.92732 35.7986 7.92503C35.7975 7.92351 35.7964 7.92236 35.7952 7.92084C35.7918 7.9174 35.7887 7.91397 35.7853 7.91054C35.7841 7.90901 35.783 7.90787 35.7819 7.90672C35.7792 7.90405 35.7765 7.90138 35.7738 7.89871C35.7727 7.89757 35.7719 7.89642 35.7708 7.89528C35.7674 7.89185 35.7635 7.88803 35.7601 7.8846C35.759 7.88383 35.7582 7.88307 35.7571 7.88231C35.7544 7.87964 35.7517 7.87697 35.7487 7.8743C35.7471 7.87277 35.7456 7.87163 35.7441 7.8701C35.7418 7.86819 35.7391 7.86591 35.7368 7.86362C35.7346 7.86171 35.7319 7.85942 35.7292 7.85751C35.7269 7.85522 35.7246 7.85332 35.7224 7.85141C35.7201 7.8495 35.7178 7.8476 35.7155 7.84569C35.7143 7.84492 35.7132 7.84378 35.7117 7.84264C35.6728 7.81136 35.6304 7.78389 35.5854 7.761L29.023 4.25339V1.9043C29.023 1.49994 28.6953 1.17188 28.2906 1.17188C27.8858 1.17188 27.5581 1.49994 27.5581 1.9043V4.39987C27.5581 4.85115 27.8053 5.26352 28.2032 5.47638L32.3299 7.68204H17.6701L21.7964 5.47638C22.1947 5.26352 22.4419 4.85115 22.4419 4.39987V1.9043C22.4419 1.49994 22.1138 1.17188 21.7094 1.17188C21.3047 1.17188 20.977 1.49994 20.977 1.9043V4.25339L14.4146 7.76138C14.3696 7.78427 14.3272 7.81174 14.2879 7.84302C14.2868 7.84416 14.2857 7.84492 14.2845 7.84607C14.2818 7.84798 14.2796 7.84988 14.2773 7.85179C14.275 7.8537 14.2727 7.85561 14.2704 7.85751C14.2681 7.8598 14.2654 7.86171 14.2632 7.864C14.2605 7.86629 14.2582 7.86819 14.2559 7.87048C14.2544 7.87201 14.2529 7.87315 14.2513 7.87468C14.2483 7.87735 14.2456 7.88002 14.2426 7.88269C14.2418 7.88345 14.2406 7.88422 14.2399 7.88498C14.2365 7.88841 14.2326 7.89223 14.2292 7.89566C14.2281 7.8968 14.2269 7.89757 14.2262 7.89871C14.2235 7.90138 14.2208 7.90443 14.2181 7.9071C14.217 7.90825 14.2159 7.90939 14.2147 7.91054C14.2113 7.91397 14.2078 7.91779 14.2048 7.92122C14.2036 7.92274 14.2025 7.92389 14.2014 7.92542C14.1991 7.9277 14.1968 7.92999 14.1949 7.93266C14.1933 7.93419 14.1914 7.9361 14.1899 7.938C14.1884 7.93991 14.1872 7.94144 14.1857 7.94334C14.1823 7.94716 14.1788 7.95135 14.1754 7.95555C14.1747 7.9567 14.1739 7.95784 14.1727 7.95898C14.1705 7.96165 14.1685 7.96471 14.1663 7.96738C14.1659 7.96776 14.1655 7.96814 14.1655 7.96852C14.0827 8.07571 14.0293 8.20618 14.0163 8.34885C14.0163 8.35037 14.0163 8.35228 14.016 8.35381C14.016 8.35686 14.0156 8.35953 14.0156 8.36258C14.0152 8.36601 14.0148 8.36945 14.0148 8.37288C14.0148 8.37555 14.0144 8.37822 14.0144 8.38051C14.0141 8.3847 14.0141 8.38928 14.0141 8.39348C14.0141 8.395 14.0137 8.39691 14.0137 8.39844V8.41484V10.6937C14.0137 11.3667 14.5611 11.9141 15.2344 11.9141ZM34.5215 10.4492H15.4785V9.14688H34.5215V10.4492Z" fill="white"/>
<path d="M44.043 28.5354H40.4785C40.0738 28.5354 39.7461 28.8631 39.7461 29.2678C39.7461 29.6722 40.0738 30.0002 40.4785 30.0002H44.043C44.4477 30.0002 44.7754 29.6722 44.7754 29.2678C44.7754 28.8631 44.4477 28.5354 44.043 28.5354Z" fill="white"/>
<path d="M9.52148 28.5354H5.95703C5.55229 28.5354 5.22461 28.8631 5.22461 29.2678C5.22461 29.6722 5.55229 30.0002 5.95703 30.0002H9.52148C9.92622 30.0002 10.2539 29.6722 10.2539 29.2678C10.2539 28.8631 9.92622 28.5354 9.52148 28.5354Z" fill="white"/>
<path d="M36.9141 38.6108V41.6828C36.9141 42.0876 37.2417 42.4152 37.6465 42.4152C38.0512 42.4152 38.3789 42.0876 38.3789 41.6828V38.6108C38.3789 38.2061 38.0512 37.8784 37.6465 37.8784C37.2417 37.8784 36.9141 38.2061 36.9141 38.6108Z" fill="white"/>
<path d="M13.0859 41.6828V38.6108C13.0859 38.2061 12.7583 37.8784 12.3535 37.8784C11.9488 37.8784 11.6211 38.2061 11.6211 38.6108V41.6828C11.6211 42.0876 11.9488 42.4152 12.3535 42.4152C12.7583 42.4152 13.0859 42.0876 13.0859 41.6828Z" fill="white"/>
<path d="M17.9688 46.2223H32.0312C32.7045 46.2223 33.252 45.6749 33.252 45.0016V36.5055C33.252 35.8326 32.7045 35.2848 32.0312 35.2848H17.9688C17.2955 35.2848 16.748 35.8326 16.748 36.5055V45.0016C16.748 45.6749 17.2955 46.2223 17.9688 46.2223ZM18.2129 36.7496H31.7871V44.7574H18.2129V36.7496Z" fill="white"/>
</g>
<defs>
<clipPath id="clip0_1249_342">
<rect width="50" height="50" fill="white"/>
</clipPath>
</defs>
</svg>
