<svg width="20" height="20" viewBox="0 0 20 20" xmlns="http://www.w3.org/2000/svg">
<path d="M15.8327 17.2917H4.16602C3.33749 17.2908 2.54314 16.9613 1.95728 16.3754C1.37142 15.7896 1.0419 14.9952 1.04102 14.1667V5.83337C1.0419 5.00484 1.37142 4.2105 1.95728 3.62464C2.54314 3.03878 3.33749 2.70926 4.16602 2.70837H15.8327C16.6612 2.70926 17.4556 3.03878 18.0414 3.62464C18.6273 4.2105 18.9568 5.00484 18.9577 5.83337V14.1667C18.9568 14.9952 18.6273 15.7896 18.0414 16.3754C17.4556 16.9613 16.6612 17.2908 15.8327 17.2917ZM4.16602 3.95837C3.66887 3.95882 3.19221 4.1565 2.84068 4.50804C2.48914 4.85957 2.29146 5.33623 2.29102 5.83337V14.1667C2.29146 14.6639 2.48914 15.1405 2.84068 15.492C3.19221 15.8436 3.66887 16.0413 4.16602 16.0417H15.8327C16.3298 16.0413 16.8065 15.8436 17.158 15.492C17.5096 15.1405 17.7072 14.6639 17.7077 14.1667V5.83337C17.7072 5.33623 17.5096 4.85957 17.158 4.50804C16.8065 4.1565 16.3298 3.95882 15.8327 3.95837H4.16602Z" fill="#51514E"/>
<path d="M9.99925 11.1025C9.53129 11.1007 9.07517 10.9553 8.69258 10.6858L1.41008 5.64749C1.34256 5.60076 1.2849 5.54119 1.2404 5.47218C1.1959 5.40317 1.16543 5.32607 1.15073 5.24528C1.13603 5.1645 1.13738 5.08161 1.15471 5.00134C1.17205 4.92108 1.20502 4.84501 1.25175 4.77749C1.29847 4.70997 1.35805 4.65231 1.42706 4.60782C1.49607 4.56332 1.57317 4.53285 1.65395 4.51814C1.73474 4.50344 1.81763 4.50479 1.8979 4.52213C1.97816 4.53946 2.05422 4.57243 2.12175 4.61916L9.40508 9.66083C9.57872 9.78362 9.78616 9.84956 9.99883 9.84956C10.2115 9.84956 10.4189 9.78362 10.5926 9.66083L17.8767 4.61833C18.0131 4.52395 18.1814 4.48762 18.3445 4.51731C18.5077 4.547 18.6524 4.64029 18.7467 4.77666C18.8411 4.91302 18.8775 5.08129 18.8478 5.24445C18.8181 5.40761 18.7248 5.55229 18.5884 5.64666L11.3051 10.6883C10.9224 10.9567 10.4666 11.1012 9.99925 11.1025Z" fill="#51514E"/>
</svg>
