<svg width="20" height="20" viewBox="0 0 20 20" xmlns="http://www.w3.org/2000/svg">
<g clip-path="url(#clip0_1295_650)">
<path d="M16.1018 2.53479C14.4673 0.900116 12.294 0 9.98245 0C7.67075 0 5.49744 0.900269 3.86292 2.53479C2.22839 4.16931 1.32812 6.34262 1.32812 8.65417C1.32812 10.9659 2.22839 13.1392 3.86292 14.7737L8.46069 19.3716C8.86597 19.7768 9.40628 20 9.9823 20C10.5582 20 11.0985 19.7768 11.5038 19.3716L16.1018 14.7737C17.7365 13.1392 18.6366 10.9659 18.6366 8.65417C18.6366 6.34262 17.7364 4.16931 16.1018 2.53479ZM15.2733 13.945L10.675 18.5431C10.4913 18.7268 10.2452 18.8281 9.9823 18.8281C9.71939 18.8281 9.47327 18.7268 9.2894 18.5431L4.69162 13.945C3.27835 12.5319 2.5 10.6528 2.5 8.65417C2.5 6.65558 3.27835 4.77661 4.69162 3.36334C6.10489 1.95023 7.9837 1.17188 9.98245 1.17188C11.981 1.17188 13.86 1.95023 15.2733 3.36334C18.1906 6.28082 18.1906 11.0278 15.2733 13.945Z" fill="#51514E"/>
<path d="M9.98318 5.55786C8.27573 5.55786 6.88672 6.94687 6.88672 8.65433C6.88672 10.3616 8.27573 11.7506 9.98318 11.7506C11.6905 11.7506 13.0795 10.3616 13.0795 8.65433C13.0795 6.94687 11.6905 5.55786 9.98318 5.55786ZM9.98318 10.5788C8.92194 10.5788 8.05859 9.71542 8.05859 8.65417C8.05859 7.59308 8.92194 6.72974 9.98318 6.72974C11.0443 6.72974 11.9076 7.59308 11.9076 8.65417C11.9076 9.71542 11.0443 10.5788 9.98318 10.5788Z" fill="#51514E"/>
</g>
<defs>
<clipPath id="clip0_1295_650">
<rect width="20" height="20" fill="white"/>
</clipPath>
</defs>
</svg>
