<svg width="50" height="50" viewBox="0 0 50 50" xmlns="http://www.w3.org/2000/svg">
<g clip-path="url(#clip0_1249_393)">
<path d="M46.8195 2.06865C46.743 1.86709 46.5906 1.70381 46.3922 1.62256C46.3898 1.62178 46.3891 1.62022 46.3875 1.61943L43.1453 0.301466C43.1445 0.301466 43.143 0.301466 43.1422 0.300685C42.1539 -0.105565 40.6688 -0.104784 39.6813 0.303028L37.0828 1.37647C36.4875 1.62178 35.4031 1.62178 34.8078 1.37647L32.2086 0.303028C31.2195 -0.105565 29.7289 -0.105565 28.7406 0.303028L26.143 1.37647C25.5477 1.62178 24.4633 1.62178 23.868 1.37647L21.2695 0.303028C20.2805 -0.105565 18.7898 -0.105565 17.8016 0.303028L15.2031 1.37647C14.6078 1.62178 13.5234 1.62178 12.9281 1.37647L10.3281 0.30381C9.34219 -0.103222 7.85781 -0.104784 6.86875 0.300685C6.86719 0.301466 6.86563 0.300685 6.86406 0.301466L3.6125 1.61865C3.61094 1.61943 3.61016 1.621 3.60781 1.62178C3.52422 1.65615 3.45078 1.70928 3.38437 1.77022C3.33516 1.81475 3.3 1.86865 3.26406 1.92334C3.23203 1.97256 3.2 2.01943 3.17891 2.07568C3.14766 2.15928 3.12656 2.24678 3.12656 2.3374C3.12656 2.33897 3.125 2.34053 3.125 2.34287V49.2187C3.125 49.2718 3.14531 49.3194 3.15547 49.3694C3.16484 49.4179 3.16328 49.4655 3.18203 49.5124C3.18281 49.5147 3.18438 49.5155 3.18516 49.5179C3.18984 49.5296 3.19922 49.5382 3.20391 49.5499C3.23906 49.6241 3.28359 49.6897 3.33672 49.7468C3.35469 49.7663 3.37656 49.7827 3.39688 49.8007C3.44609 49.8444 3.5 49.8804 3.55859 49.9101C3.58359 49.9226 3.60781 49.9351 3.63516 49.9452C3.72187 49.978 3.8125 49.9999 3.90625 49.9999C4.00391 49.9999 4.10391 49.9819 4.2 49.9429L4.21016 49.939L4.21094 49.9382L7.45156 48.6249C7.45234 48.6241 7.45312 48.6233 7.45469 48.6226H7.45625C8.05156 48.3772 9.13594 48.3772 9.73125 48.6226L12.3297 49.696C13.3187 50.1046 14.8094 50.1046 15.7977 49.696L18.3961 48.6226C18.9914 48.3772 20.0758 48.3772 20.6711 48.6226L23.2695 49.696C24.2586 50.1046 25.7492 50.1046 26.7375 49.696L29.3352 48.6226C29.9305 48.3772 31.0148 48.3772 31.6102 48.6226L34.2094 49.696C34.7039 49.9007 35.3234 50.003 35.9437 50.003C36.5641 50.003 37.1836 49.9007 37.6781 49.696L40.2766 48.6226C40.8719 48.3772 41.9555 48.3765 42.5508 48.6233C42.5516 48.6233 42.5523 48.6233 42.5539 48.6241C42.5547 48.6241 42.5555 48.6249 42.5563 48.6257L45.7883 49.939C45.7883 49.939 45.7891 49.939 45.7891 49.9397L45.7992 49.9437C45.8953 49.9827 45.9945 50.0007 46.093 50.0007C46.1867 50.0007 46.2766 49.9788 46.3641 49.946C46.3914 49.9358 46.4148 49.9233 46.4414 49.9101C46.4992 49.8811 46.5523 49.8452 46.6008 49.8022C46.6219 49.7843 46.6445 49.7671 46.6633 49.7468C46.7156 49.6897 46.7594 49.6249 46.7945 49.5515C46.8 49.5397 46.8094 49.5312 46.8141 49.5187C46.8148 49.5163 46.8164 49.5147 46.8172 49.5132C46.8383 49.4616 46.8375 49.4077 46.8469 49.3554C46.8563 49.3093 46.875 49.2679 46.875 49.2194V49.2101C46.875 49.2093 46.875 49.2077 46.875 49.2069V46.0843C46.875 46.0835 46.875 46.0819 46.875 46.0812V35.1491C46.875 35.1483 46.875 35.1468 46.875 35.146V24.214C46.875 24.2132 46.875 24.2116 46.875 24.2108V13.2788C46.875 13.278 46.875 13.2765 46.875 13.2757V2.34365C46.875 2.34209 46.8742 2.34053 46.8742 2.33897C46.8734 2.246 46.8523 2.15537 46.8195 2.06865ZM43.1453 44.0522C43.1445 44.0522 43.143 44.0522 43.1422 44.0515C42.1539 43.6452 40.6688 43.6452 39.6813 44.0538L37.0828 45.1272C36.9766 45.1718 36.8508 45.2046 36.7188 45.2327V35.8835C37.0641 35.8343 37.393 35.7538 37.6789 35.6358L40.2773 34.5624C40.8727 34.3171 41.9562 34.3163 42.5516 34.5632C42.5523 34.5632 42.5531 34.5632 42.5547 34.564C42.5555 34.564 42.5563 34.5647 42.557 34.5655L45.3125 35.6843V44.9327L43.1453 44.0522ZM6.86875 44.0507C6.86719 44.0515 6.86563 44.0507 6.86406 44.0515L4.6875 44.9335V35.6843L7.45156 34.564C7.45234 34.5632 7.45312 34.5624 7.45469 34.5616H7.45625C8.05156 34.3163 9.13594 34.3163 9.73125 34.5616L12.3297 35.6351C12.6125 35.7522 12.9391 35.8319 13.2812 35.8812V45.2304C13.1531 45.2022 13.0305 45.1694 12.9266 45.1265L10.3281 44.053C9.34219 43.646 7.85781 43.6444 6.86875 44.0507ZM7.45156 12.6937C7.45234 12.6929 7.45312 12.6921 7.45469 12.6913H7.45625C8.05156 12.446 9.13594 12.446 9.73125 12.6913L12.3297 13.7647C12.6125 13.8819 12.9391 13.9616 13.2812 14.0108V23.3601C13.1531 23.3319 13.0305 23.2991 12.9266 23.2562L10.3281 22.1827C9.34219 21.7757 7.85781 21.7741 6.86875 22.1796C6.86719 22.1804 6.86563 22.1796 6.86406 22.1804L4.6875 23.0632V13.814L7.45156 12.6937ZM42.5523 12.6921C42.5531 12.6921 42.5539 12.6921 42.5555 12.6929C42.5563 12.6929 42.557 12.6937 42.5578 12.6944L45.3125 13.814V23.0624L43.1453 22.1819C43.1445 22.1819 43.143 22.1819 43.1422 22.1812C42.1539 21.7749 40.6688 21.7749 39.6813 22.1835L37.0828 23.2569C36.9766 23.3015 36.8508 23.3343 36.7188 23.3624V14.0132C37.0641 13.964 37.393 13.8835 37.6789 13.7655L40.2773 12.6921C40.8727 12.446 41.957 12.4452 42.5523 12.6921ZM43.1453 33.1171C43.1445 33.1163 43.143 33.1171 43.1422 33.1163C42.1539 32.7093 40.6688 32.7101 39.6813 33.1187L37.0828 34.1921C36.9766 34.2358 36.8508 34.2687 36.7188 34.2968V24.9483C37.0641 24.8991 37.393 24.8187 37.6789 24.7007L40.2773 23.6272C40.8727 23.3819 41.9562 23.3812 42.5516 23.628C42.5523 23.6288 42.5531 23.628 42.5547 23.6288C42.5555 23.6288 42.5563 23.6296 42.557 23.6304L45.3125 24.7491V33.9976L43.1453 33.1171ZM6.86875 33.1155C6.86719 33.1163 6.86563 33.1155 6.86406 33.1163L4.6875 33.9983V24.7491L7.45156 23.6288C7.45234 23.628 7.45312 23.6272 7.45469 23.6265H7.45625C8.05156 23.3812 9.13594 23.3812 9.73125 23.6265L12.3297 24.6999C12.6125 24.8163 12.9391 24.8968 13.2812 24.946V34.2952C13.1531 34.2671 13.0305 34.2343 12.9266 34.1913L10.3281 33.1179C9.34219 32.7108 7.85781 32.7101 6.86875 33.1155ZM14.8438 24.9476C15.1867 24.8976 15.5141 24.8179 15.7984 24.7007L18.3969 23.6272C18.9922 23.3819 20.0766 23.3819 20.6719 23.6272L23.2703 24.7007C23.5523 24.8171 23.8773 24.8968 24.2188 24.9468V34.2952C24.0914 34.2671 23.9703 34.2351 23.8672 34.1921L21.2688 33.1187C20.2797 32.7101 18.7891 32.7101 17.8008 33.1187L15.2023 34.1921C15.0977 34.2358 14.9742 34.2687 14.8445 34.296V24.9476H14.8438ZM25.7812 24.9476C26.125 24.8983 26.4539 24.8179 26.7391 24.7007L29.3367 23.6272C29.932 23.3819 31.0164 23.3819 31.6117 23.6272L34.2109 24.7007C34.4922 24.8171 34.8164 24.8968 35.1562 24.946V34.2944C35.0305 34.2671 34.9102 34.2343 34.8078 34.1921L32.2086 33.1187C31.2195 32.7101 29.7289 32.7101 28.7406 33.1187L26.143 34.1921C26.0375 34.2358 25.9133 34.2687 25.782 34.2968V24.9476H25.7812ZM35.1562 23.3585C35.0305 23.3312 34.9102 23.2983 34.8078 23.2562L32.2086 22.1827C31.2195 21.7741 29.7289 21.7741 28.7406 22.1827L26.143 23.2562C26.0375 23.2999 25.9133 23.3327 25.782 23.3608V14.0124C26.1258 13.9632 26.4547 13.8827 26.7398 13.7655L29.3375 12.6921C29.9328 12.4468 31.0172 12.4468 31.6125 12.6921L34.2117 13.7655C34.493 13.8819 34.8172 13.9616 35.157 14.0108V23.3585H35.1562ZM24.2188 23.3593C24.0914 23.3312 23.9703 23.2991 23.8672 23.2562L21.2688 22.1827C20.2797 21.7741 18.7891 21.7741 17.8008 22.1827L15.2023 23.2562C15.0977 23.2999 14.9742 23.3327 14.8445 23.3601V14.0124C15.1875 13.9624 15.5148 13.8827 15.7992 13.7655L18.3977 12.6921C18.993 12.4468 20.0773 12.4468 20.6727 12.6921L23.2711 13.7655C23.5531 13.8819 23.8781 13.9616 24.2195 14.0116V23.3593H24.2188ZM14.8438 35.8827C15.1867 35.8327 15.5141 35.753 15.7984 35.6358L18.3969 34.5624C18.9922 34.3171 20.0766 34.3171 20.6719 34.5624L23.2703 35.6358C23.5523 35.7522 23.8773 35.8319 24.2188 35.8819V45.2304C24.0914 45.2022 23.9703 45.1702 23.8672 45.1272L21.2688 44.0538C20.2797 43.6452 18.7891 43.6452 17.8008 44.0538L15.2023 45.1272C15.0977 45.171 14.9742 45.2038 14.8445 45.2312V35.8827H14.8438ZM25.7812 35.8827C26.125 35.8335 26.4539 35.753 26.7391 35.6358L29.3367 34.5624C29.932 34.3171 31.0164 34.3171 31.6117 34.5624L34.2109 35.6358C34.4922 35.7522 34.8164 35.8319 35.1562 35.8812V45.2296C35.0305 45.2022 34.9102 45.1694 34.8078 45.1272L32.2086 44.0538C31.2195 43.6452 29.7289 43.6452 28.7406 44.0538L26.143 45.1272C26.0375 45.171 25.9133 45.2038 25.782 45.2319V35.8827H25.7812ZM37.6789 2.82022L40.2773 1.74678C40.8727 1.50147 41.9562 1.50068 42.5516 1.74756C42.5523 1.74834 42.5531 1.74756 42.5547 1.74834C42.5555 1.74834 42.5563 1.74912 42.557 1.7499L45.3125 2.86943V12.1272L43.1453 11.2468C43.1445 11.246 43.143 11.2468 43.1422 11.246C42.1539 10.8397 40.6688 10.8397 39.6813 11.2483L37.0828 12.3218C36.9766 12.3655 36.8508 12.3983 36.7188 12.4265V3.06865C37.0641 3.01865 37.393 2.93897 37.6789 2.82022ZM26.7391 2.82022L29.3367 1.74678C29.932 1.50147 31.0164 1.50147 31.6117 1.74678L34.2109 2.82022C34.4922 2.9374 34.8164 3.01631 35.1562 3.06631V12.4241C35.0305 12.3968 34.9102 12.364 34.8078 12.3218L32.2086 11.2483C31.2195 10.8397 29.7289 10.8397 28.7406 11.2483L26.143 12.3218C26.0375 12.3655 25.9133 12.3983 25.782 12.4265V3.06787C26.125 3.01787 26.4539 2.93818 26.7391 2.82022ZM15.7984 2.82022L18.3969 1.74678C18.9922 1.50147 20.0766 1.50147 20.6719 1.74678L23.2703 2.82022C23.5523 2.9374 23.8773 3.01631 24.2188 3.06709V12.4249C24.0914 12.3968 23.9703 12.3647 23.8672 12.3218L21.2688 11.2483C20.2797 10.8397 18.7891 10.8397 17.8008 11.2483L15.2023 12.3218C15.0977 12.3655 14.9742 12.3983 14.8445 12.4257V3.06787C15.1867 3.01709 15.5141 2.93818 15.7984 2.82022ZM9.73125 1.74678L12.3297 2.82022C12.6133 2.9374 12.9398 3.01709 13.2812 3.06709V12.4257C13.1531 12.3976 13.0305 12.3647 12.9266 12.3218L10.3281 11.2483C9.34219 10.8413 7.85781 10.8405 6.86875 11.2452C6.86719 11.246 6.86563 11.2452 6.86406 11.246L4.6875 12.1272V2.86943L7.45156 1.74912C7.45234 1.74834 7.45312 1.74756 7.45469 1.74678H7.45625C8.05156 1.50147 9.13594 1.50147 9.73125 1.74678ZM39.6813 47.1796L37.0828 48.253C36.4875 48.4983 35.4031 48.4983 34.8078 48.253L32.2086 47.1796C31.2195 46.771 29.7289 46.771 28.7406 47.1796L26.143 48.253C25.5477 48.4983 24.4633 48.4983 23.868 48.253L21.2695 47.1796C20.2805 46.771 18.7898 46.771 17.8016 47.1796L15.2031 48.253C14.6078 48.4983 13.5234 48.4983 12.9281 48.253L10.3281 47.1796C9.34219 46.7726 7.85781 46.7718 6.86875 47.1765C6.86719 47.1772 6.86563 47.1765 6.86406 47.1772L4.6875 48.0593V46.6194L7.45156 45.4991C7.45234 45.4983 7.45312 45.4976 7.45469 45.4968H7.45625C8.05156 45.2515 9.13594 45.2515 9.73125 45.4968L12.3297 46.5702C13.3187 46.9788 14.8094 46.9788 15.7977 46.5702L18.3961 45.4968C18.9914 45.2515 20.0758 45.2515 20.6711 45.4968L23.2695 46.5702C24.2586 46.9788 25.7492 46.9788 26.7375 46.5702L29.3352 45.4968C29.9305 45.2515 31.0148 45.2515 31.6102 45.4968L34.2094 46.5702C34.7039 46.7749 35.3234 46.8772 35.9437 46.8772C36.5641 46.8772 37.1836 46.7749 37.6781 46.5702L40.2766 45.4968C40.8719 45.2515 41.9555 45.2507 42.5508 45.4976C42.5516 45.4983 42.5523 45.4976 42.5539 45.4983C42.5547 45.4983 42.5555 45.4991 42.5563 45.4999L45.3125 46.6194V48.0585L43.1453 47.178C43.1445 47.1772 43.143 47.178 43.1422 47.1772C42.1539 46.771 40.6688 46.771 39.6813 47.1796Z" fill="white"/>
</g>
<defs>
<clipPath id="clip0_1249_393">
<rect width="50" height="50" fill="white"/>
</clipPath>
</defs>
</svg>
