<svg width="44" height="44" viewBox="0 0 44 44" xmlns="http://www.w3.org/2000/svg">
<g clip-path="url(#clip0_1297_933)">
<path d="M39.875 5.5H4.125C1.85075 5.5 0 7.35075 0 9.625V34.375C0 36.6493 1.85075 38.5 4.125 38.5H26.125C26.884 38.5 27.5 37.884 27.5 37.125C27.5 36.366 26.884 35.75 26.125 35.75H4.125C3.366 35.75 2.75 35.134 2.75 34.375V9.68L21.1392 24.4475C21.3895 24.6483 21.6947 24.75 22 24.75C22.3053 24.75 22.6105 24.6483 22.8607 24.4475L41.25 9.68V23.375C41.25 24.134 41.866 24.75 42.625 24.75C43.384 24.75 44 24.134 44 23.375V9.625C44 7.35075 42.1493 5.5 39.875 5.5ZM22 21.6123L5.35975 8.25H38.6375L22 21.6123ZM43.5985 27.9015C44.1348 28.4377 44.1348 29.3095 43.5985 29.8457L35.3485 38.0957C35.079 38.3652 34.727 38.5 34.375 38.5C34.023 38.5 33.671 38.3652 33.4015 38.0985L29.2765 33.9735C28.7402 33.4373 28.7402 32.5655 29.2765 32.0293C29.8127 31.493 30.6845 31.493 31.2207 32.0293L34.3722 35.1807L41.6488 27.9043C42.1905 27.3653 43.0595 27.3652 43.5985 27.9015Z" fill="#33332E"/>
</g>
<defs>
<clipPath id="clip0_1297_933">
<rect width="44" height="44" fill="white"/>
</clipPath>
</defs>
</svg>
