<svg width="16" height="12" viewBox="0 0 16 12" fill="none" xmlns="http://www.w3.org/2000/svg">
<path d="M16 1.9267C14.911 2.20594 14.0733 2.62478 13.4869 3.18325C12.9284 3.71379 12.6771 4.35602 12.733 5.10995C13.096 5.55672 13.5428 5.91972 14.0733 6.19895C14.6318 6.45026 15.2182 6.67365 15.8325 6.86911C15.9721 7.37173 15.986 7.88831 15.8743 8.41885C15.7906 8.92147 15.6091 9.39616 15.3298 9.84293C15.0506 10.2618 14.7155 10.6248 14.3246 10.9319C13.9616 11.2391 13.5846 11.4206 13.1937 11.4764C12.6073 11.4485 12.0349 11.3368 11.4764 11.1414C10.918 10.918 10.4293 10.6108 10.0105 10.2199C9.59162 9.82897 9.24258 9.36824 8.96335 8.8377C8.71204 8.27923 8.58639 7.65096 8.58639 6.95288C8.58639 6.11518 8.75393 5.31937 9.08901 4.56545C9.42408 3.7836 9.88482 3.08552 10.4712 2.4712C11.0855 1.85689 11.8115 1.34031 12.6492 0.921466C13.4869 0.474696 14.4084 0.16754 15.4136 0L16 1.9267ZM7.41361 1.9267C6.32461 2.20594 5.48691 2.62478 4.90052 3.18325C4.34206 3.71379 4.09075 4.35602 4.1466 5.10995C4.5096 5.55672 4.95637 5.91972 5.48691 6.19895C6.04538 6.45026 6.63176 6.67365 7.24607 6.86911C7.38569 7.37173 7.39965 7.88831 7.28796 8.41885C7.20419 8.92147 7.02269 9.39616 6.74346 9.84293C6.46422 10.2618 6.12915 10.6248 5.73822 10.9319C5.37522 11.2391 4.99826 11.4206 4.60733 11.4764C4.02094 11.4485 3.44852 11.3368 2.89005 11.1414C2.33159 10.918 1.84293 10.6108 1.42408 10.2199C1.00524 9.82897 0.656196 9.36824 0.376964 8.8377C0.125655 8.27923 0 7.65096 0 6.95288C0 6.11518 0.167539 5.31937 0.502618 4.56545C0.837696 3.7836 1.29843 3.08552 1.88482 2.4712C2.49913 1.85689 3.22513 1.34031 4.06283 0.921466C4.90052 0.474696 5.82199 0.16754 6.82722 0L7.41361 1.9267Z" fill="#33332E"/>
</svg>
