<svg width="87" height="85" viewBox="0 0 87 85" fill="none" xmlns="http://www.w3.org/2000/svg">
<g opacity="0.25">
<mask id="path-1-inside-1_1314_712" fill="white">
<path fill-rule="evenodd" clip-rule="evenodd" d="M44.4568 85C67.9289 85 86.9568 65.9721 86.9568 42.5C86.9568 19.0279 67.9289 0 44.4568 0C20.9847 0 1.95678 19.0279 1.95678 42.5C1.95678 50.3099 4.06336 57.6278 7.73931 63.9165C8.49716 65.2129 8.59224 66.8322 7.71355 68.0501C5.43 71.215 2.4858 73.6874 0.769565 75.0617C0.412662 75.3475 0.00931631 75.6816 0.000153938 76.1387C-0.0414018 78.212 8.33908 77.1589 14.7724 75.4565C16.0993 75.1053 17.5165 75.4007 18.6054 76.2363C25.7677 81.7329 34.7307 85 44.4568 85Z"/>
</mask>
<path d="M14.7724 75.4565L15.0282 76.4232L14.7724 75.4565ZM18.6054 76.2363L19.2142 75.443L18.6054 76.2363ZM0.769565 75.0617L1.3946 75.8423L0.769565 75.0617ZM7.71355 68.0501L8.5245 68.6352L7.71355 68.0501ZM85.9568 42.5C85.9568 65.4198 67.3766 84 44.4568 84V86C68.4812 86 87.9568 66.5244 87.9568 42.5H85.9568ZM44.4568 1C67.3766 1 85.9568 19.5802 85.9568 42.5H87.9568C87.9568 18.4756 68.4812 -1 44.4568 -1V1ZM2.95678 42.5C2.95678 19.5802 21.537 1 44.4568 1V-1C20.4324 -1 0.956779 18.4756 0.956779 42.5H2.95678ZM8.60264 63.4118C5.01376 57.2721 2.95678 50.1278 2.95678 42.5H0.956779C0.956779 50.492 3.11296 57.9835 6.87599 64.4211L8.60264 63.4118ZM6.9026 67.465C4.70197 70.515 1.84663 72.9182 0.144526 74.2811L1.3946 75.8423C3.12497 74.4567 6.15804 71.9151 8.5245 68.6352L6.9026 67.465ZM-0.999645 76.1187C-1.01298 76.7841 -0.659478 77.2824 -0.214082 77.5939C0.192465 77.8783 0.702231 78.0347 1.20056 78.1288C2.21143 78.3197 3.56058 78.321 5.03294 78.2107C8.00347 77.988 11.7692 77.2856 15.0282 76.4232L14.5166 74.4897C11.3423 75.3297 7.70111 76.0051 4.88345 76.2163C3.46172 76.3228 2.32147 76.3051 1.57164 76.1636C1.18962 76.0914 1.00122 76.0033 0.932285 75.9551C0.902197 75.934 1.0029 76.0116 0.999953 76.1588L-0.999645 76.1187ZM44.4568 84C34.9585 84 26.208 80.8103 19.2142 75.443L17.9965 77.0296C25.3274 82.6556 34.5029 86 44.4568 86V84ZM15.0282 76.4232C16.0498 76.1529 17.1487 76.3789 17.9965 77.0296L19.2142 75.443C17.8843 74.4224 16.1488 74.0578 14.5166 74.4897L15.0282 76.4232ZM0.144526 74.2811C-0.0249355 74.4168 -0.293662 74.6309 -0.514633 74.8968C-0.743889 75.1727 -0.988897 75.5824 -0.999645 76.1187L0.999953 76.1588C0.998367 76.2379 0.959614 76.252 1.02355 76.1751C1.09577 76.0882 1.20716 75.9924 1.3946 75.8423L0.144526 74.2811ZM6.87599 64.4211C7.48457 65.4622 7.49645 66.6419 6.9026 67.465L8.5245 68.6352C9.68802 67.0226 9.50975 64.9637 8.60264 63.4118L6.87599 64.4211Z" fill="white" mask="url(#path-1-inside-1_1314_712)"/>
</g>
<path d="M28.7558 48V39.06H29.9318V43.044H34.4078V39.06H35.5958V48H34.4078V44.124H29.9318V48H28.7558ZM40.424 48.144C39.8 48.144 39.244 47.996 38.756 47.7C38.268 47.404 37.884 47 37.604 46.488C37.324 45.968 37.184 45.388 37.184 44.748C37.184 44.1 37.32 43.524 37.592 43.02C37.872 42.516 38.248 42.12 38.72 41.832C39.2 41.536 39.736 41.388 40.328 41.388C40.808 41.388 41.232 41.476 41.6 41.652C41.976 41.82 42.292 42.052 42.548 42.348C42.812 42.636 43.012 42.968 43.148 43.344C43.292 43.712 43.364 44.096 43.364 44.496C43.364 44.584 43.356 44.684 43.34 44.796C43.332 44.9 43.32 45 43.304 45.096H38V44.136H42.656L42.128 44.568C42.2 44.152 42.16 43.78 42.008 43.452C41.856 43.124 41.632 42.864 41.336 42.672C41.04 42.48 40.704 42.384 40.328 42.384C39.952 42.384 39.608 42.48 39.296 42.672C38.984 42.864 38.74 43.14 38.564 43.5C38.396 43.852 38.328 44.272 38.36 44.76C38.328 45.232 38.4 45.648 38.576 46.008C38.76 46.36 39.016 46.636 39.344 46.836C39.68 47.028 40.044 47.124 40.436 47.124C40.868 47.124 41.232 47.024 41.528 46.824C41.824 46.624 42.064 46.368 42.248 46.056L43.184 46.536C43.056 46.832 42.856 47.104 42.584 47.352C42.32 47.592 42.004 47.784 41.636 47.928C41.276 48.072 40.872 48.144 40.424 48.144ZM44.8191 48V38.916H45.9351V48H44.8191ZM47.6667 48V38.916H48.7827V48H47.6667ZM53.5864 48.144C52.9624 48.144 52.3984 48 51.8944 47.712C51.3904 47.416 50.9904 47.012 50.6944 46.5C50.3984 45.988 50.2504 45.408 50.2504 44.76C50.2504 44.112 50.3944 43.536 50.6824 43.032C50.9784 42.528 51.3784 42.128 51.8824 41.832C52.3864 41.536 52.9544 41.388 53.5864 41.388C54.2104 41.388 54.7744 41.536 55.2784 41.832C55.7824 42.12 56.1784 42.516 56.4664 43.02C56.7624 43.524 56.9104 44.104 56.9104 44.76C56.9104 45.416 56.7584 46 56.4544 46.512C56.1504 47.016 55.7464 47.416 55.2424 47.712C54.7464 48 54.1944 48.144 53.5864 48.144ZM53.5864 47.064C53.9864 47.064 54.3464 46.964 54.6664 46.764C54.9944 46.564 55.2504 46.288 55.4344 45.936C55.6264 45.584 55.7224 45.192 55.7224 44.76C55.7224 44.32 55.6264 43.932 55.4344 43.596C55.2504 43.252 54.9944 42.98 54.6664 42.78C54.3464 42.572 53.9864 42.468 53.5864 42.468C53.1784 42.468 52.8104 42.572 52.4824 42.78C52.1624 42.98 51.9064 43.252 51.7144 43.596C51.5224 43.932 51.4264 44.32 51.4264 44.76C51.4264 45.192 51.5224 45.584 51.7144 45.936C51.9064 46.288 52.1624 46.564 52.4824 46.764C52.8104 46.964 53.1784 47.064 53.5864 47.064ZM58.858 45.384L58.786 39.06H59.962L59.878 45.384H58.858ZM58.786 48V46.56H59.962V48H58.786Z" fill="white"/>
</svg>
