<svg width="14" height="13" viewBox="0 0 14 13" fill="none" xmlns="http://www.w3.org/2000/svg">
<path d="M6.02809 1.01344C6.27498 -0.00607486 7.72502 -0.00607509 7.97191 1.01344L8.61604 3.67335C8.73146 4.14998 9.17548 4.47258 9.66444 4.43506L12.3932 4.22571C13.4391 4.14547 13.8872 5.52454 12.9939 6.07439L10.6632 7.50896C10.2456 7.76601 10.076 8.28799 10.2628 8.74143L11.3051 11.272C11.7046 12.2419 10.5315 13.0942 9.73252 12.4145L7.64795 10.6412C7.27442 10.3234 6.72558 10.3234 6.35205 10.6412L4.26748 12.4145C3.46848 13.0942 2.29538 12.2419 2.6949 11.272L3.73724 8.74143C3.92402 8.28799 3.75442 7.76601 3.33679 7.50896L1.00611 6.07439C0.112784 5.52454 0.560869 4.14547 1.60678 4.22571L4.33556 4.43506C4.82452 4.47258 5.26854 4.14998 5.38396 3.67335L6.02809 1.01344Z" fill="#EAA450"/>
</svg>
